#!OML:ASF H:\Terrain\Patient Classification 1\Animal1\Tuesday\Animal1.ASF
:FULLY-SPECIFIED
:DEGREES
1881
root 13.6844 15.6054 -7.96382 -147.708 5.49592 -175.308
lowerback 25.2345 -3.40527 -4.04277
upperback 17.8575 -0.192217 -4.32859
thorax 6.18148 1.55022 -2.25428
lowerneck -6.5086 1.5972 -13.9577
upperneck -20.5508 4.72084 3.64523
head -5.59727 4.02197 3.25415
rclavicle 3.65764e-014 1.07344e-014
rhumerus 59.9511 36.9458 -39.5137
rradius 19.786
rwrist -30.9185
rhand -25.6451 17.4074
rfingers 7.12502
rthumb 0.888493 -12.5705
lclavicle 3.65764e-014 1.07344e-014
lhumerus 49.3392 -29.779 23.0962
lradius 39.3838
lwrist -22.0813
lhand 2.1589 40.6625
lfingers 7.12502
lthumb 27.6565 68.6495
rfemur -52.5618 -8.28642 22.941
rtibia 68.7057
rfoot -4.41953 -24.1203
rtoes 14.1544
lfemur -66.2157 6.36096 -31.0124
ltibia 52.166
lfoot -11.3714 5.33444
ltoes 6.00355
1882
root 13.7217 15.654 -8.06155 -147.926 5.1402 -174.683
lowerback 24.5868 -2.91498 -4.58221
upperback 17.8372 0.288155 -3.66544
thorax 6.48432 1.65933 -1.3013
lowerneck -6.42616 1.63136 -13.4456
upperneck -20.3512 4.60383 2.89911
head -5.51365 3.94383 2.93431
rclavicle 6.99722e-014 3.63776e-014
rhumerus 60.478 38.0126 -37.5396
rradius 20.8271
rwrist -31.6774
rhand -25.8222 17.1468
rfingers 7.12502
rthumb 0.717492 -12.8318
lclavicle 6.99722e-014 3.63776e-014
lhumerus 49.1119 -29.4929 23.6353
lradius 39.0578
lwrist -22.7672
lhand 2.03395 40.4986
lfingers 7.12502
lthumb 27.5371 68.5047
rfemur -52.9238 -7.28549 23.1813
rtibia 67.5664
rfoot -5.55341 -23.4622
rtoes 21.4576
lfemur -65.5933 6.38397 -29.7712
ltibia 52.1877
lfoot -11.1728 5.47799
ltoes 3.72501
1883
root 13.7696 15.7058 -8.16069 -148.216 4.64966 -174.216
lowerback 23.9528 -2.43081 -5.37661
upperback 17.7974 0.709339 -2.88426
thorax 6.75341 1.70175 -0.0643544
lowerneck -5.84832 1.70546 -12.7191
upperneck -20.4783 4.39801 1.72962
head -5.59763 3.84205 2.43726
rclavicle -2.06736e-014 -2.10712e-014
rhumerus 61.3429 39.069 -35.2632
rradius 21.873
rwrist -33.2822
rhand -25.555 17.651
rfingers 7.12502
rthumb 0.975557 -12.3265
lclavicle -2.06736e-014 -2.10712e-014
lhumerus 47.9419 -29.301 26.6936
lradius 38.0536
lwrist -25.479
lhand 1.45348 40.4907
lfingers 7.12502
lthumb 26.9818 68.5839
rfemur -53.2562 -6.37122 23.3133
rtibia 66.3703
rfoot -7.75949 -23.2787
rtoes 25.8471
lfemur -64.8142 6.35688 -28.6144
ltibia 52.162
lfoot -11.1128 5.42534
ltoes 3.13688
1884
root 13.813 15.7561 -8.25325 -148.574 4.42373 -174.28
lowerback 23.4839 -1.90975 -6.73308
upperback 17.7531 1.12072 -2.27918
thorax 6.95797 1.70801 1.29435
lowerneck -5.35518 1.84816 -11.7731
upperneck -20.5698 4.28599 0.427446
head -5.65631 3.78396 1.86223
rclavicle 2.8625e-014 5.1684e-015
rhumerus 62.8939 40.0518 -32.202
rradius 22.8669
rwrist -35.6797
rhand -25.1236 18.1302
rfingers 7.12502
rthumb 1.39216 -11.845
lclavicle 2.8625e-014 5.1684e-015
lhumerus 48.1394 -29.3693 25.8832
lradius 38.0488
lwrist -24.7827
lhand 0.829184 40.7742
lfingers 7.12502
lthumb 26.3843 68.9584
rfemur -53.6496 -5.6445 22.7779
rtibia 65.1187
rfoot -9.82063 -23.0453
rtoes 27.2423
lfemur -63.8696 6.32538 -28.2151
ltibia 52.0358
lfoot -11.171 5.23949
ltoes 3.3065
1885
root 13.8407 15.8143 -8.34617 -149.122 4.24163 -174.513
lowerback 23.3088 -1.48118 -7.99908
upperback 17.7268 1.4612 -1.83603
thorax 7.03891 1.71727 2.43357
lowerneck -5.01395 2.05104 -10.7825
upperneck -20.5753 4.29824 -0.813293
head -5.66833 3.78118 1.30035
rclavicle 3.81667e-014 3.73715e-014
rhumerus 63.7309 40.8589 -30.0701
rradius 23.952
rwrist -37.1538
rhand -24.8704 17.8078
rfingers 7.12502
rthumb 1.63675 -12.1657
lclavicle 3.81667e-014 3.73715e-014
lhumerus 48.1978 -29.4055 25.2886
lradius 37.9853
lwrist -24.189
lhand 0.0838817 40.8294
lfingers 7.12502
lthumb 25.6707 69.1186
rfemur -53.8352 -5.22305 22.0823
rtibia 63.7403
rfoot -9.41127 -22.7912
rtoes 25.9683
lfemur -62.6193 6.1124 -27.9661
ltibia 51.8509
lfoot -11.1699 5.20042
ltoes 1.81453
1886
root 13.8717 15.8824 -8.44907 -149.741 4.02007 -174.382
lowerback 23.1472 -1.00304 -9.06566
upperback 17.6992 1.89294 -1.31043
thorax 7.0793 1.78483 3.53829
lowerneck -5.26015 2.0643 -9.64256
upperneck -20.0531 4.17221 -1.83893
head -5.40497 3.65924 0.811106
rclavicle -7.95139e-015 -1.82882e-014
rhumerus 63.5968 41.5471 -29.0717
rradius 25.1998
rwrist -37.7195
rhand -24.5357 17.1415
rfingers 7.12502
rthumb 1.95995 -12.8293
lclavicle -7.95139e-015 -1.82882e-014
lhumerus 48.2755 -29.6526 24.4498
lradius 37.9275
lwrist -23.378
lhand -0.637473 40.9217
lfingers 7.12502
lthumb 24.9796 69.3088
rfemur -53.8153 -4.65614 21.7869
rtibia 62.1706
rfoot -7.04232 -22.8446
rtoes 21.8073
lfemur -61.3748 6.04844 -27.3131
ltibia 51.6796
lfoot -10.9497 5.25281
ltoes -0.882706
1887
root 13.9217 15.932 -8.55401 -150.083 3.8906 -174.034
lowerback 22.6199 -0.40491 -10.2772
upperback 17.756 2.518 -0.761788
thorax 7.36684 1.91684 4.73808
lowerneck -5.19847 2.31826 -8.17961
upperneck -20.0341 4.25779 -3.51017
head -5.33876 3.6992 0.0456347
rclavicle -1.74931e-014 -2.54444e-014
rhumerus 63.807 41.9299 -27.6532
rradius 26.4702
rwrist -38.5407
rhand -24.473 16.8855
rfingers 7.12502
rthumb 2.02051 -13.0847
lclavicle -1.74931e-014 -2.54444e-014
lhumerus 48.5971 -29.65 23.5232
lradius 37.8737
lwrist -22.9111
lhand -0.873771 40.8302
lfingers 7.12502
lthumb 24.7532 69.2485
rfemur -54.0784 -3.64962 21.6112
rtibia 60.5069
rfoot -4.5896 -22.8842
rtoes 21.4293
lfemur -60.5358 6.13972 -26.434
ltibia 51.5724
lfoot -10.7009 5.12823
ltoes -0.176832
1888
root 13.9706 15.9787 -8.65692 -150.262 3.64187 -173.701
lowerback 22.0136 -0.218048 -11.3761
upperback 17.6403 2.50913 -0.156197
thorax 7.5561 1.70672 6.04094
lowerneck -4.74603 2.75152 -8.35697
upperneck -20.1627 4.61063 -4.49357
head -5.45085 3.93319 -0.259863
rclavicle -1.27222e-014 -8.74653e-015
rhumerus 65.8963 43.1044 -24.238
rradius 27.8348
rwrist -40.0082
rhand -24.6741 16.6461
rfingers 7.12502
rthumb 1.82634 -13.3259
lclavicle -1.27222e-014 -8.74653e-015
lhumerus 47.2899 -29.3403 24.0486
lradius 37.6497
lwrist -23.1349
lhand -0.880736 40.5933
lfingers 7.12502
lthumb 24.7465 69.0126
rfemur -54.4948 -2.62098 21.3267
rtibia 58.7847
rfoot -3.8275 -22.4493
rtoes 26.6147
lfemur -59.8225 6.06117 -25.4628
ltibia 51.4743
lfoot -10.5547 4.76156
ltoes 3.52587
1889
root 14.016 16.0413 -8.76185 -150.604 3.24931 -173.333
lowerback 21.7504 -0.0575153 -12.5996
upperback 17.5908 2.47754 0.462843
thorax 7.68754 1.48954 7.43493
lowerneck -5.32798 3.16486 -8.28432
upperneck -19.5617 5.10711 -5.28966
head -5.15493 4.15844 -0.5076
rclavicle 9.54166e-015 1.19271e-014
rhumerus 67.9247 43.965 -21.2908
rradius 29.1775
rwrist -41.1144
rhand -24.7735 15.9304
rfingers 7.12502
rthumb 1.73029 -14.0424
lclavicle 9.54166e-015 1.19271e-014
lhumerus 45.8472 -28.8023 24.6439
lradius 37.3481
lwrist -23.6279
lhand -0.735294 40.8884
lfingers 7.12502
lthumb 24.8859 69.2884
rfemur -54.6054 -1.65523 20.9984
rtibia 57.0143
rfoot -5.27831 -21.6174
rtoes 30.2347
lfemur -58.9322 6.10073 -24.5617
ltibia 51.3512
lfoot -10.4437 4.36836
ltoes 5.04914
